<svg id="SvgjsSvg1001" width="360" height="360" xmlns="http://www.w3.org/2000/svg" version="1.1" xmlns:xlink="http://www.w3.org/1999/xlink" xmlns:svgjs="http://svgjs.com/svgjs"><defs id="SvgjsDefs1002"></defs><g id="SvgjsG1008" transform="matrix(0.9167,0,0,0.9167,14.99458217655436,14.994042262649543)"><svg xmlns="http://www.w3.org/2000/svg" xmlns:xlink="http://www.w3.org/1999/xlink" data-name="Layer 1" viewBox="0 0 808.6 597.63" width="360" height="360"><defs><linearGradient id="n" x1="557.44" x2="557.9" y1="298.87" y2="298.87" xlink:href="#d"></linearGradient><linearGradient id="f" x1="421.7" x2="259.72" y1="709.05" y2="-188.59" gradientUnits="userSpaceOnUse"><stop offset=".02" stop-color="#68e1fd" class="stopColor68e1fd svgShape"></stop><stop offset="1" stop-color="#ffffff" stop-opacity="0" class="stopColorfff svgShape"></stop></linearGradient><linearGradient id="g" x1="353.1" x2="354.87" y1="341.1" y2="180.86" xlink:href="#a"></linearGradient><linearGradient id="b" x1="413.67" x2="330.43" y1="210.5" y2="410.73" gradientUnits="userSpaceOnUse"><stop offset=".17" stop-color="#00272e" class="stopColor00272e svgShape"></stop><stop offset="1" stop-color="#69b9eb" stop-opacity="0" class="stopColor69b9eb svgShape"></stop></linearGradient><linearGradient id="h" x1="291.54" x2="295.76" y1="452.05" y2="573.53" xlink:href="#b"></linearGradient><linearGradient id="i" x1="296.84" x2="291.53" y1="385.27" y2="451.67" xlink:href="#a"></linearGradient><linearGradient id="j" x1="374.49" x2="543.27" y1="466.81" y2="468.67" gradientUnits="userSpaceOnUse"><stop offset=".18" stop-color="#00272e" class="stopColor00272e svgShape"></stop><stop offset="1" stop-color="#69b9eb" stop-opacity="0" class="stopColor69b9eb svgShape"></stop></linearGradient><linearGradient id="c" x1="664.15" x2="413.72" y1="477.06" y2="456.41" gradientUnits="userSpaceOnUse"><stop offset="0" stop-color="#68e1fd" class="stopColor68e1fd svgShape"></stop><stop offset="1" stop-color="#ffffff" class="stopColorfff svgShape"></stop></linearGradient><linearGradient id="k" x1="560.92" x2="421.25" y1="338.84" y2="327.33" xlink:href="#c"></linearGradient><linearGradient id="l" x1="428.28" x2="57.02" y1="333.07" y2="333.07" xlink:href="#a"></linearGradient><linearGradient id="d" x1="549.28" x2="551.89" y1="387.46" y2="387.46" gradientUnits="userSpaceOnUse"><stop offset="0" stop-color="#68e1fd" class="stopColor68e1fd svgShape"></stop><stop offset="1" stop-color="#69b9eb" class="stopColor69b9eb svgShape"></stop></linearGradient><linearGradient id="m" x1="553.11" x2="554.51" y1="291.29" y2="291.29" xlink:href="#d"></linearGradient><linearGradient id="a" x1="589.63" x2="651.74" y1="263.09" y2="357.74" gradientUnits="userSpaceOnUse"><stop offset="0" stop-color="#ffffff" stop-opacity="0" class="stopColorfff svgShape"></stop><stop offset=".99" stop-color="#ffffff" class="stopColorfff svgShape"></stop></linearGradient><linearGradient id="o" x1="166.75" x2="201.12" y1="566.16" y2="356.44" xlink:href="#a"></linearGradient><linearGradient id="p" x1="204.8" x2="189.36" y1="402.31" y2="593.6" gradientUnits="userSpaceOnUse"><stop offset=".02" stop-color="#68e1fd" class="stopColor68e1fd svgShape"></stop><stop offset="1" stop-color="#ffffff" class="stopColorfff svgShape"></stop></linearGradient><linearGradient id="e" x1="301.88" x2="278.8" y1="337.15" y2="335.24" gradientUnits="userSpaceOnUse"><stop offset="0" stop-color="#ecc4d7" class="stopColorecc4d7 svgShape"></stop><stop offset=".42" stop-color="#efd4d1" class="stopColorefd4d1 svgShape"></stop><stop offset="1" stop-color="#f2eac9" class="stopColorf2eac9 svgShape"></stop></linearGradient><linearGradient id="q" x1="993.13" x2="970.39" y1="-655.81" y2="-657.68" gradientTransform="rotate(-26.85 2798.443 1136.516)" xlink:href="#e"></linearGradient><linearGradient id="r" x1="249.61" x2="269.25" y1="782.15" y2="782.15" gradientTransform="rotate(15 2804.344 1010.179)" xlink:href="#e"></linearGradient><linearGradient id="s" x1="262.51" x2="227.89" y1="767.91" y2="825.51" gradientTransform="rotate(15 2804.344 1010.179)" xlink:href="#e"></linearGradient><linearGradient id="t" x1="231.94" x2="273.53" y1="754.9" y2="754.9" gradientTransform="rotate(15 2804.344 1010.179)" xlink:href="#e"></linearGradient><linearGradient id="u" x1="367.48" x2="403.33" y1="217.66" y2="217.66" xlink:href="#e"></linearGradient><linearGradient id="v" x1="330.7" x2="338.81" y1="178.29" y2="178.29" gradientUnits="userSpaceOnUse"><stop offset="0" stop-color="#183866" class="stopColor183866 svgShape"></stop><stop offset="1" stop-color="#1a7fc1" class="stopColor1a7fc1 svgShape"></stop></linearGradient><linearGradient id="w" x1="314.79" x2="338.64" y1="165.12" y2="165.12" xlink:href="#e"></linearGradient><linearGradient id="x" x1="327.09" x2="375.33" y1="142.14" y2="258.79" xlink:href="#a"></linearGradient><linearGradient id="y" x1="314.79" x2="330.75" y1="165.11" y2="165.11" xlink:href="#e"></linearGradient></defs><path fill="#136af6" d="M294.51,43.65c-21.25,19.69-37,45-59.58,63.11-38.18,30.68-90,36.78-134.9,56.31-29.7,12.92-57.86,33.39-71,63-10.65,23.93-9.27,52.29,1.76,76a75.1,75.1,0,0,1-4.58,71.59C9.86,399.56,0,429.15,1.59,459.54c2.46,46.74,37.95,92.85,84.56,97.15,16,1.48,32.08-1.77,47.92-4.67C229.74,534.52,331,530,422,564.29c24.94,9.4,48.95,21.65,74.88,27.83,30.29,7.22,61.87,5.85,93,4.44,48.58-2.2,105.26-9,130.07-50.84,34.39-58-20.39-130.41-12.6-197.37,4.31-37,27.64-69.54,32.56-106.43,5.34-40.1-13.67-82.49-47.17-105.17-46.52-31.49-110.85-23.85-158.88-53-38-23.07-64.12-68.15-108.92-80.42C381-8.69,326.49,14,294.51,43.65Z" opacity=".18" transform="translate(-1.42 -.05)" class="color68e1fd svgShape"></path><path style="isolation:isolate" fill="url(#f)" d="M92.34,446.46c-4.7-32.27-15.91-63.34-20.45-95.64S70.51,283,91.2,257.77c13.5-16.43,32.9-26.68,51.87-36.29,16.87-8.55,34.24-17.07,53-19.39,16.54-2,33.23.85,49.77,2.83,31.12,3.72,62.81,4.21,93.7-1.09C379.87,196.9,418,180.89,457.41,170c38.61-10.66,76.83-16.09,120,4,29.84,13.9,51.86,42.92,59,75,11.54,51.83-14.52,109.27,7.39,157.63,6.18,13.62,15.78,25.36,23.62,38.1A166,166,0,0,1,688,495.63c1.37,6.19,2.38,12.72.63,18.81-4.5,15.6-23.78,20.79-40,22.07-53.93,4.26-107.81-5.8-161.6-11.65-87.32-9.48-175.43-7.81-262.9-1.28q-32.12,2.4-64.18,5.6c-17.25,1.69-50,12-66.26,7.09-18.13-5.49-6.23-17.38-2.39-34.45C95.43,483.75,95,464.7,92.34,446.46Z" transform="translate(-1.42 -.05)"></path><path fill="#136af6" d="M385.41,137.23s-8.27,33.62-20.63,43c-12.76,9.68-26-8.92-26-8.92l-7.36,13.32s13.63,22,27.37,22.51,25.8-11.79,25.8-11.79Z" transform="translate(-1.42 -.05)" class="color68e1fd svgShape"></path><polygon fill="#3f3d56" points="313.37 114.09 315.24 113.26 353.36 122.95 364.81 200.15 363.38 200.15 313.37 114.09" class="color3f3d56 svgShape"></polygon><path fill="#000405" d="M134.47,530.7s-83.15,5.57-95.11,13.54,81.7,9.72,231.15,5.23,264.52,0,346,8.22,192,6.63,193.53-13.5-201.75-20.37-201.75-20.37Z" opacity=".05" transform="translate(-1.42 -.05)" class="color000405 svgShape"></path><path fill="#136af6" d="M651.4,370.46s-2.79,23.22-20.73,25.5H551.89L540.68,267h83c6.7,0,20.43,7.22,23.17,17.44a44.1,44.1,0,0,1,.73,5.73h0C649.38,310,651.4,370.46,651.4,370.46Z" transform="translate(-1.42 -.05)" class="color68e1fd svgShape"></path><path style="isolation:isolate" fill="url(#a)" d="M647.6,290.19h-76l-22.56-22.14L548,267H623.7c6.7,0,20.43,7.22,23.17,17.44A44.1,44.1,0,0,1,647.6,290.19Z" transform="translate(-1.42 -.05)"></path><path fill="#136af6" d="M144.64,279l-7.42-3.23a4.58,4.58,0,0,1,1.83-8.78H540.68a33,33,0,0,1,25.93,12.2,23.27,23.27,0,0,1,5,11c1.81,12.07.7,64.64.2,84.38-.27,10.72-8.17,19.95-18.81,21.28l-1.14.11h-389Z" transform="translate(-1.42 -.05)" class="color68e1fd svgShape"></path><path fill="#136af6" d="M144.64,279l-7.42-3.23a4.58,4.58,0,0,1,1.83-8.78H540.68a33,33,0,0,1,25.93,12.2,23.27,23.27,0,0,1,5,11c1.81,12.07.7,64.64.2,84.38-.27,10.72-8.17,19.95-18.81,21.28l-1.14.11h-389Z" transform="translate(-1.42 -.05)" class="color68e1fd svgShape"></path><path style="isolation:isolate" fill="url(#g)" d="M571.84,374.57c-.27,10.72-8.17,19.95-18.81,21.28l-1.14.11h-389L144.64,279l-7.42-3.23a4.58,4.58,0,0,1,1.83-8.78H540.68a33,33,0,0,1,25.93,12.2,23.27,23.27,0,0,1,5,11C573.45,302.26,572.34,354.83,571.84,374.57Z" transform="translate(-1.42 -.05)"></path><path fill="url(#b)" d="M124.5,396H553.3a5.6,5.6,0,0,0,5.6-5.59h0a5.6,5.6,0,0,0-5.6-5.6H124.5a5.6,5.6,0,0,0-5.6,5.6h0A5.6,5.6,0,0,0,124.5,396Z" opacity=".61" transform="translate(-1.42 -.05)"></path><path fill="#136af6" d="M124.5 396H553.3a5.6 5.6 0 005.6-5.59h0a5.6 5.6 0 00-5.6-5.6H124.5a5.6 5.6 0 00-5.6 5.6h0A5.6 5.6 0 00124.5 396zM641.29 432.74v69.95a34.41 34.41 0 01-34.41 34.42H154.48a34.36 34.36 0 01-34.41-34.42V432.74a34.18 34.18 0 015.1-18 31.74 31.74 0 012.42-3.44 34.34 34.34 0 0126.89-12.95h452.4a34.41 34.41 0 0134.41 34.43z" transform="translate(-1.42 -.05)" class="color68e1fd svgShape"></path><path fill="url(#h)" d="M465.12,537.11H154.48A34.41,34.41,0,0,1,123.17,517H445.36S450,534,465.12,537.11Z" opacity=".61" transform="translate(-1.42 -.05)"></path><path style="isolation:isolate" fill="url(#i)" d="M465.12,398.31c-14.28,2.36-18.27,16.39-18.27,16.39H125.17l2.42-3.44a34.34,34.34,0,0,1,26.89-12.95Z" transform="translate(-1.42 -.05)"></path><path fill="url(#j)" d="M641.29,432.74v69.95a34.38,34.38,0,0,1-17.79,30.14H481.41a21.6,21.6,0,0,1-21.61-21.6V426.36a21.6,21.6,0,0,1,21.61-21.61H626.92A34.4,34.4,0,0,1,641.29,432.74Z" opacity=".61" transform="translate(-1.42 -.05)"></path><path fill="url(#c)" d="M641.29,432.74v69.95a35.25,35.25,0,0,1-.21,3.86c-.06.56-.14,1.11-.23,1.66a33,33,0,0,1-1.9,7c-.21.57-.44,1.12-.7,1.67a34.17,34.17,0,0,1-4.2,7c-.44.56-.9,1.12-1.39,1.66a34.33,34.33,0,0,1-9.16,7.35H501.83a21.51,21.51,0,0,1-16.23-7.35,20.88,20.88,0,0,1-1.32-1.66,21.13,21.13,0,0,1-3.31-7c-.15-.54-.27-1.1-.37-1.67a20.59,20.59,0,0,1-.37-3.95V426.36a20.89,20.89,0,0,1,.48-4.5,13.41,13.41,0,0,1,.41-1.66,21.11,21.11,0,0,1,3.56-7,18.46,18.46,0,0,1,1.41-1.66,21.49,21.49,0,0,1,15.74-6.82H626.92a34.22,34.22,0,0,1,7.09,6.82c.42.54.83,1.09,1.22,1.66a33.44,33.44,0,0,1,3.7,7c.22.55.43,1.11.6,1.66a32.45,32.45,0,0,1,1.54,7c.07.55.12,1.11.15,1.67C641.27,431.23,641.29,432,641.29,432.74Z" transform="translate(-1.42 -.05)"></path><path fill="#ffffff" d="M635.23 413.23H484.68a18.46 18.46 0 011.41-1.66H634C634.43 412.11 634.84 412.66 635.23 413.23zM639.53 421.86H480.71a13.41 13.41 0 01.41-1.66H638.93C639.15 420.75 639.36 421.31 639.53 421.86zM641.22 430.5h-161v-1.67H641.07C641.14 429.38 641.19 429.94 641.22 430.5z" transform="translate(-1.42 -.05)" class="colorfff svgShape"></path><rect width="161.07" height="1.66" x="478.81" y="437.42" fill="#ffffff" class="colorfff svgShape"></rect><rect width="161.07" height="1.66" x="478.81" y="446.05" fill="#ffffff" class="colorfff svgShape"></rect><rect width="161.07" height="1.66" x="478.81" y="454.69" fill="#ffffff" class="colorfff svgShape"></rect><rect width="161.07" height="1.65" x="478.81" y="463.33" fill="#ffffff" class="colorfff svgShape"></rect><rect width="161.07" height="1.65" x="478.81" y="471.96" fill="#ffffff" class="colorfff svgShape"></rect><rect width="161.07" height="1.65" x="478.81" y="480.6" fill="#ffffff" class="colorfff svgShape"></rect><rect width="161.07" height="1.65" x="478.81" y="489.23" fill="#ffffff" class="colorfff svgShape"></rect><rect width="161.07" height="1.66" x="478.81" y="497.87" fill="#ffffff" class="colorfff svgShape"></rect><path fill="#ffffff" d="M641.08 506.55c-.06.56-.14 1.11-.23 1.66H480.23v-1.66zM639 515.18c-.21.57-.44 1.12-.7 1.67H481c-.15-.54-.27-1.1-.37-1.67zM634.05 523.82c-.44.56-.9 1.12-1.39 1.66H485.6a20.88 20.88 0 01-1.32-1.66z" transform="translate(-1.42 -.05)" class="colorfff svgShape"></path><path fill="#136af6" d="M441.68,382.18h102.5a31.11,31.11,0,0,1-14,3.28H149.06A30.62,30.62,0,0,1,131.4,380a27,27,0,0,1-4.07-3.45c-.4-.41-.79-.84-1.16-1.27a26.12,26.12,0,0,1-3.54-5.35c-.21-.42-.41-.85-.59-1.27a23.57,23.57,0,0,1-1.6-5.35c-.07-.42-.14-.84-.19-1.28a24,24,0,0,1-.18-2.95V305.42c0-.58,0-1.15.06-1.71s.07-.85.12-1.27a23.89,23.89,0,0,1,1.29-5.35c.16-.43.33-.85.51-1.28a25.11,25.11,0,0,1,3.12-5.34c.33-.43.67-.86,1-1.28a27.22,27.22,0,0,1,2.37-2.44A30.39,30.39,0,0,1,149.06,279H530.18A30.84,30.84,0,0,1,547.05,284H441.68a19.52,19.52,0,0,0-4.76.58,18.46,18.46,0,0,0-8.5,4.64,13,13,0,0,0-1.19,1.28,15.85,15.85,0,0,0-3,5.34,11.55,11.55,0,0,0-.35,1.28,14.54,14.54,0,0,0-.4,3.45v65.07a15.29,15.29,0,0,0,.31,3,10.72,10.72,0,0,0,.32,1.27,15.63,15.63,0,0,0,2.78,5.35,14.84,14.84,0,0,0,1.11,1.27,17.89,17.89,0,0,0,6.07,4.12A19.43,19.43,0,0,0,441.68,382.18Z" transform="translate(-1.42 -.05)" class="color68e1fd svgShape"></path><path fill="url(#k)" d="M559.16,305.81v53.37c0,.31,0,.62,0,.92s0,.62-.06.92-.05.61-.08.91-.08.56-.11.83-.07.43-.11.64a2,2,0,0,1-.06.32c-.05.29-.11.59-.18.88s-.09.38-.15.57-.09.37-.15.56-.11.4-.17.6l-.21.61c0,.17-.1.33-.16.49s-.16.43-.25.64l-.27.65a2.21,2.21,0,0,1-.16.35,4.31,4.31,0,0,1-.22.49c-.06.14-.14.28-.21.42s-.21.43-.33.63-.34.65-.53,1l-.31.5c-.28.46-.57.9-.88,1.33-.16.23-.32.44-.48.65-.32.43-.66.84-1,1.25s-.76.86-1.17,1.27a27.82,27.82,0,0,1-2.61,2.35.2.2,0,0,1-.07.06c-.3.24-.6.46-.91.69l-1,.69-1,.64c-.32.2-.64.38-1,.57l-1.15.61H441.68a19.6,19.6,0,0,1-7.61-1.51,18,18,0,0,1-6.07-4.1,14.84,14.84,0,0,1-1.11-1.27,15.41,15.41,0,0,1-2.78-5.32,10.56,10.56,0,0,1-.32-1.26,15.17,15.17,0,0,1-.31-3V300.94a14.44,14.44,0,0,1,.4-3.43,11.38,11.38,0,0,1,.35-1.27,15.72,15.72,0,0,1,3-5.31,13,13,0,0,1,1.19-1.28,18.61,18.61,0,0,1,8.5-4.62,20,20,0,0,1,4.76-.57H547.05c.46.3.92.61,1.36.94l.51.38a24.33,24.33,0,0,1,2,1.66l.55.52.4.4.54.56.54.6.11.13.08.1c.32.38.64.78.94,1.18.16.2.31.41.46.61a.28.28,0,0,0,.06.08q.4.58.78,1.17l.43.7c.26.44.51.9.74,1.35.11.24.23.46.34.69s.22.48.31.71.19.42.27.64.17.42.24.63.15.42.22.63a20,20,0,0,1,.73,2.65,2.41,2.41,0,0,1,.07.35c0,.21.08.42.12.63s.11.71.16,1.06.1.84.12,1.27c0,.22,0,.45,0,.68S559.16,305.46,559.16,305.81Z" transform="translate(-1.42 -.05)"></path><path fill="#136af6" d="M434.07,380.66q-3.39.82-7,1.52H155.34A124.59,124.59,0,0,1,131.4,380a27,27,0,0,1-4.07-3.45c-.4-.41-.79-.84-1.16-1.27a26.12,26.12,0,0,1-3.54-5.35c-.21-.42-.41-.85-.59-1.27a23.57,23.57,0,0,1-1.6-5.35c-.07-.42-.14-.84-.19-1.28a24,24,0,0,1-.18-2.95V305.42c0-.58,0-1.15.06-1.71s.07-.85.12-1.27a23.89,23.89,0,0,1,1.29-5.35c.16-.43.33-.85.51-1.28a25.11,25.11,0,0,1,3.12-5.34c.33-.43.67-.86,1-1.28a27.22,27.22,0,0,1,2.37-2.44A122.35,122.35,0,0,1,155.34,284H434.68l2.24.58a18.46,18.46,0,0,0-8.5,4.64,13,13,0,0,0-1.19,1.28,15.85,15.85,0,0,0-3,5.34,11.55,11.55,0,0,0-.35,1.28,14.54,14.54,0,0,0-.4,3.45v65.07a15.29,15.29,0,0,0,.31,3,10.72,10.72,0,0,0,.32,1.27,15.63,15.63,0,0,0,2.78,5.35,14.84,14.84,0,0,0,1.11,1.27A17.89,17.89,0,0,0,434.07,380.66Z" transform="translate(-1.42 -.05)" class="color68e1fd svgShape"></path><path style="isolation:isolate" fill="url(#l)" d="M434.07,380.66q-3.39.82-7,1.52H155.34A124.59,124.59,0,0,1,131.4,380a27,27,0,0,1-4.07-3.45c-.4-.41-.79-.84-1.16-1.27a26.12,26.12,0,0,1-3.54-5.35c-.21-.42-.41-.85-.59-1.27a23.57,23.57,0,0,1-1.6-5.35c-.07-.42-.14-.84-.19-1.28a24,24,0,0,1-.18-2.95V305.42c0-.58,0-1.15.06-1.71s.07-.85.12-1.27a23.89,23.89,0,0,1,1.29-5.35c.16-.43.33-.85.51-1.28a25.11,25.11,0,0,1,3.12-5.34c.33-.43.67-.86,1-1.28a27.22,27.22,0,0,1,2.37-2.44A122.35,122.35,0,0,1,155.34,284H434.68l2.24.58a18.46,18.46,0,0,0-8.5,4.64,13,13,0,0,0-1.19,1.28,15.85,15.85,0,0,0-3,5.34,11.55,11.55,0,0,0-.35,1.28,14.54,14.54,0,0,0-.4,3.45v65.07a15.29,15.29,0,0,0,.31,3,10.72,10.72,0,0,0,.32,1.27,15.63,15.63,0,0,0,2.78,5.35,14.84,14.84,0,0,0,1.11,1.27A17.89,17.89,0,0,0,434.07,380.66Z" transform="translate(-1.42 -.05)"></path><path fill="url(#d)" d="M551.89,386.16a24.64,24.64,0,0,1-2.61,2.6A27.85,27.85,0,0,0,551.89,386.16Z" transform="translate(-1.42 -.05)"></path><path fill="url(#m)" d="M554.51,292.28c-.15-.23-.3-.46-.46-.68-.3-.44-.62-.88-.94-1.3C553.61,290.94,554.08,291.6,554.51,292.28Z" transform="translate(-1.42 -.05)"></path><path fill="url(#n)" d="M557.68,298.87c.08.23.15.46.22.69-.13-.47-.29-.93-.46-1.39C557.53,298.4,557.61,298.63,557.68,298.87Z" transform="translate(-1.42 -.05)"></path><path fill="#136af6" d="M559.16,305.81v53.37c0,.51,0,1,0,1.52s-.05.77-.1,1.16A23.21,23.21,0,0,1,558,366.7c-.12.39-.25.77-.4,1.14a27.23,27.23,0,0,1-13.37,14.34H424.47c-9.24,0-16.87-6.24-18-14.32a7.35,7.35,0,0,1-.12-1.16,8.37,8.37,0,0,1-.05-1V300.94c0-9.11,8.14-16.48,18.2-16.48H547.05C554.39,289.22,559.16,297,559.16,305.81Z" transform="translate(-1.42 -.05)" class="color68e1fd svgShape"></path><path fill="#ffffff" d="M554.05 290.47H427.23a13 13 0 011.19-1.28H553C553.38 289.61 553.72 290 554.05 290.47zM557.68 297.09H423.88a11 11 0 01.35-1.28H557.18C557.36 296.23 557.53 296.66 557.68 297.09zM559.11 303.71H423.48v-1.28H559C559 302.85 559.08 303.28 559.11 303.71z" transform="translate(-1.42 -.05)" class="colorfff svgShape"></path><rect width="135.69" height="1.28" x="422.06" y="309" fill="#ffffff" class="colorfff svgShape"></rect><rect width="135.69" height="1.28" x="422.06" y="315.62" fill="#ffffff" class="colorfff svgShape"></rect><rect width="135.69" height="1.28" x="422.06" y="322.24" fill="#ffffff" class="colorfff svgShape"></rect><rect width="135.69" height="1.27" x="422.06" y="328.87" fill="#ffffff" class="colorfff svgShape"></rect><rect width="135.69" height="1.27" x="422.06" y="335.49" fill="#ffffff" class="colorfff svgShape"></rect><rect width="135.69" height="1.27" x="422.06" y="342.11" fill="#ffffff" class="colorfff svgShape"></rect><rect width="135.69" height="1.27" x="422.06" y="348.73" fill="#ffffff" class="colorfff svgShape"></rect><rect width="135.69" height="1.28" x="422.06" y="355.35" fill="#ffffff" class="colorfff svgShape"></rect><path fill="#ffffff" d="M559.18 362a11.83 11.83 0 000 1.28H423.48V362zM557.19 368.64c0 .43-.55.85-.59 1.28H424.11a10.41 10.41 0 01-.32-1.28zM432.1 290.47H125.17c.33-.43.67-.86 1-1.28H429.66C430.5 289.61 431.31 290 432.1 290.47zM429.34 297.09H121.54c.16-.43.33-.85.51-1.28H428.13A15.81 15.81 0 01429.34 297.09zM432.74 303.71H120.13c0-.43.07-.85.12-1.27H432.44A11.15 11.15 0 01432.74 303.71z" transform="translate(-1.42 -.05)" class="colorfff svgShape"></path><rect width="312.82" height="1.27" x="118.64" y="309" fill="#ffffff" class="colorfff svgShape"></rect><rect width="312.82" height="1.27" x="118.64" y="315.62" fill="#ffffff" class="colorfff svgShape"></rect><rect width="312.82" height="1.28" x="118.64" y="322.24" fill="#ffffff" class="colorfff svgShape"></rect><rect width="312.82" height="1.27" x="118.64" y="328.87" fill="#ffffff" class="colorfff svgShape"></rect><rect width="312.82" height="1.26" x="118.64" y="335.5" fill="#ffffff" class="colorfff svgShape"></rect><rect width="312.82" height="1.26" x="118.64" y="342.11" fill="#ffffff" class="colorfff svgShape"></rect><rect width="312.82" height="1.27" x="118.64" y="348.73" fill="#ffffff" class="colorfff svgShape"></rect><rect width="312.82" height="1.28" x="118.64" y="355.35" fill="#ffffff" class="colorfff svgShape"></rect><path fill="#ffffff" d="M432.46 362a12.31 12.31 0 01-.47 1.28H120.44c-.07-.42-.14-.84-.19-1.28zM428.17 368.65a17.74 17.74 0 01-1.41 1.27H122.63c-.21-.42-.41-.85-.59-1.27z" transform="translate(-1.42 -.05)" class="colorfff svgShape"></path><path fill="#3f3d56" d="M443.79,267c-4.51,5.42-10.34,10.87-12.65,12.08C418,286,402.78,291.35,395.07,304c-9.76,16-3.45,36.93-7.93,55.15-.82,3.32-2.09,6.71-4.66,9s-6.7,3.07-9.43,1c-2.4-1.81-3-5.09-3.45-8.06a315.38,315.38,0,0,1-.44-84.55c-15,6.7-25.15,20.84-33.16,35.14s-14.73,29.63-25.89,41.64c-3.17,3.4-7.34,6.73-11.94,6.07-5.53-7-2.63-17.23.51-25.61,6.29-16.83,12.6-33.7,20.7-49.75,2.62-5.2,5.53-10.42,9.93-14.24a25.61,25.61,0,0,1,3.88-2.77Z" opacity=".2" transform="translate(-1.42 -.05)" class="color3f3d56 svgShape"></path><path fill="#ffffff" d="M553.06,375.27c-.34.45-.72.8-1.1,1.27H127.33c-.4-.41-.79-.84-1.16-1.27Z" transform="translate(-1.42 -.05)" class="colorfff svgShape"></path><path style="isolation:isolate" fill="url(#o)" d="M219.2,537.11H167.89c-16.45-4.14-24.42-21.93-24.42-21.93s-1.49-87,0-98,26.41-18.9,26.41-18.9H219.2c-16.45,2.36-28.4,18.4-28.4,18.4s-1,96.15,0,102.62S219.2,537.11,219.2,537.11Z" transform="translate(-1.42 -.05)"></path><path style="isolation:isolate" fill="url(#p)" d="M219.2,537.11H202.75c-16.43-4.14-24.4-21.93-24.4-21.93s-1.5-87,0-98,26.4-18.9,26.4-18.9H219.2c-16.45,2.36-28.4,18.4-28.4,18.4s-1,96.15,0,102.62S219.2,537.11,219.2,537.11Z" transform="translate(-1.42 -.05)"></path><polygon fill="url(#e)" points="289.24 329.8 284.46 338.1 295.56 342.93 300.15 335.03 289.24 329.8"></polygon><polygon fill="url(#q)" points="363.87 352.09 363.35 361.34 375.45 360.64 375.96 352.09 363.87 352.09"></polygon><path fill="#3f3d56" d="M288.06 336.31a4.36 4.36 0 00-1-1.33 3.78 3.78 0 00-1.64-.6l-19.21-3.86a8 8 0 00-2.12-.23c-1.84.12-3.35 1.47-4.56 2.86a4.13 4.13 0 00-1.26 2.48 4.34 4.34 0 001.76 3 49.28 49.28 0 004.25 3.52 88.34 88.34 0 008.87 5.47c2.06 1.16 4.12 2.32 6.23 3.38 3.47 1.74 7.07 3.2 10.69 4.62a1.06 1.06 0 001.47-.35 29.27 29.27 0 006.08-9.46c.35-.87 1-2.78 0-3.5-.35-.25-1.34-.21-1.78-.31a12.68 12.68 0 01-1.92-.63A12.55 12.55 0 01288.06 336.31zM366 357.19a4.48 4.48 0 00-1.53-.65 3.82 3.82 0 00-1.72.3l-18.54 6.33a8.1 8.1 0 00-1.95.86c-1.53 1-2.16 3-2.51 4.77a4.1 4.1 0 00.17 2.77 4.28 4.28 0 003 1.69 47.46 47.46 0 005.44.9 86.07 86.07 0 0010.41.27c2.37 0 4.73-.06 7.09-.21 3.88-.24 7.73-.79 11.56-1.38a1.06 1.06 0 001.1-1 29.55 29.55 0 00.51-11.24c-.14-.93-.57-2.89-1.78-3-.43-.05-1.26.49-1.69.62a11.26 11.26 0 01-2 .42A12.43 12.43 0 01366 357.19z" transform="translate(-1.42 -.05)" class="color3f3d56 svgShape"></path><path fill="#136af6" d="M226.82,90" opacity=".18" transform="translate(-1.42 -.05)" class="color68e1fd svgShape"></path><path fill="#3f3d56" d="M441.06,232.45s-3.14,29.39-30.23,34.57c-18.34,3.51-40.77,2.26-53.33,1.09a16.17,16.17,0,0,0-15.16,7.47l-39,62.12-11.3-5.46-.09,0-4-1.92,32.48-75.78a34.31,34.31,0,0,1,21.62-19.88l37.31-11.55,8.72-2.7S423,216.89,441.06,232.45Z" transform="translate(-1.42 -.05)" class="color3f3d56 svgShape"></path><path fill="#ffffff" d="M379.39,223.07l2.45,5.19s-43,12.6-48.28,18.73c-7.05,8.2-41.51,85.25-41.51,85.25l-.09,0-4-1.92,32.48-75.78a34.31,34.31,0,0,1,21.62-19.88Z" opacity=".24" transform="translate(-1.42 -.05)" class="colorfff svgShape"></path><path fill="#3f3d56" d="M394.66,227.35S360.12,261,359,279s3.71,74.44,3.71,74.44h16.76s-.83-68.52,6-69,37.79-20.38,42.76-26.09,12.9-25.92,12.9-25.92Z" transform="translate(-1.42 -.05)" class="color3f3d56 svgShape"></path><path fill="#136af6" d="M441.06,232.45s-27.69,14.13-56.44-2.4a64.54,64.54,0,0,1-7.21-4.81s12.12-21.65,2.47-53.1c-4.13-13.45-4.22-39.13,16.23-42.79l.1,0c20.34-3.61,19.19,1.41,19.19,1.41l9.2,8.94C442.29,154.09,444.23,176.06,441.06,232.45Z" transform="translate(-1.42 -.05)" class="color68e1fd svgShape"></path><path fill="#ffffff" d="M396.21,129.33a11.72,11.72,0,0,1-3.83,4.63s-12.16,5.39-9.73,23.22,6.88,52.12,6.88,52.12l-4.91,20.75a64.54,64.54,0,0,1-7.21-4.81s12.12-21.65,2.47-53.1c-4.13-13.45-4.22-39.13,16.23-42.79Z" opacity=".24" transform="translate(-1.42 -.05)" class="colorfff svgShape"></path><path fill="#3f3d56" d="M414.5,128.19a12.73,12.73,0,0,1-18.37,1.2s-15,15,.16,16.81c8,1,17.85-8.68,20.7-14.15Z" transform="translate(-1.42 -.05)" class="color3f3d56 svgShape"></path><path fill="url(#r)" d="M419,114.14c-.06.2-2.88,8.83-5,15a20,20,0,0,1-9.34,11.29,22.29,22.29,0,0,1-8.5,3,3.92,3.92,0,0,1-3.73-5.9c.7-1.23,1.46-2.65,2.16-4.16,1.46-3.14,2.68-6.63,2.48-9.39,0-.1,0-.21,0-.3-.18-1.44.76-2.71,2.34-3.82,2.23-1.55,5.74-2.77,9.17-3.69A95.14,95.14,0,0,1,419,114.14Z" transform="translate(-1.42 -.05)"></path><path fill="url(#s)" d="M396.77,133.25a8.26,8.26,0,0,1-2.09.15c1.46-3.14,2.68-6.63,2.48-9.39l2.32-4.12,1.73-3.06,7.44-.63,7.52-.63C411.21,127.3,402.88,132.16,396.77,133.25Z" transform="translate(-1.42 -.05)"></path><path fill="url(#t)" d="M410.74,74.68a20.16,20.16,0,0,0-24.13,17.15,68.27,68.27,0,0,0-.19,24.48c3.43,12.55,21.86,8,25.6,4.19s18.77-21.37,16.31-28.2C426.76,87.66,421.26,77.06,410.74,74.68Z" transform="translate(-1.42 -.05)"></path><path fill="#3f3d56" d="M395.89,62.44,398.73,65a12.84,12.84,0,0,0-11.5,2.17,16.81,16.81,0,0,0-7.84,10.07l6.31-1.13s-2.3,6.79,8.16,10.18,21.56,6.86,21.56,6.86l-2.24-6s5.87,4.42,6.36,7.18a83.14,83.14,0,0,1-1,12.5s4.48-6.1,5.16-4.32-3.22,7.35-5,8.34-2.62,5.1-2.84,5.4,8-3.44,8.81-5.28,12.72-19.35,9.47-24.59l2.69.51a13.14,13.14,0,0,0-4.66-3.42S421,56,395.89,62.44Z" transform="translate(-1.42 -.05)" class="color3f3d56 svgShape"></path><path fill="url(#u)" d="M391.93,210.1c-1.51-1.51-3-3.31-5.11-3.67-.74,1.76.77,3.57,1.41,5.36a1.47,1.47,0,0,1,0,1.28c-.3.48-1,.51-1.55.47a24.41,24.41,0,0,1-7.75-1.86c-2.28-1-4.47-2.29-6.94-2.54a1.23,1.23,0,0,0-.78.1c-.6.38-.25,1.3.18,1.86a21.66,21.66,0,0,0,3.11,3.31A17.3,17.3,0,0,0,369,213c-.53,0-1.25.11-1.24.64a1,1,0,0,0,.3.57,17,17,0,0,0,5,3.92,16.92,16.92,0,0,0-4.2-.35c-.61,0-1.42.32-1.33.92a1.11,1.11,0,0,0,.28.52,12.72,12.72,0,0,0,6.54,4.19l-4,.09a1.5,1.5,0,0,0-.73.15c-.72.46-.09,1.59.61,2.08,3.08,2.15,7,2.53,10.77,2.8,7.21.52,14.8.8,21.3-2.38.47-.24,1-.56,1.09-1.08a1.84,1.84,0,0,0-.12-.8c-.79-2.63-1.19-7.4-3.58-9-1.16-.77-2.59-1.21-3.78-2S393.29,210.78,391.93,210.1Z" transform="translate(-1.42 -.05)"></path><path fill="#136af6" d="M446.93,204.52c-2.26,22.21-42.56,24.93-42.56,24.93l-4.15-14.27-.73-2.51s21.56-2.72,25.68-9.47-12.84-29.38-2.59-42,12.58-8.74,12.58-8.74S449.17,182.31,446.93,204.52Z" transform="translate(-1.42 -.05)" class="color68e1fd svgShape"></path><path fill="url(#v)" d="M338.81,171.32s0,.83-.17,2.08c-.34,3.11-1.31,8.8-3.89,10.87-3.63,2.91-4.13-1.33-4.05-3a17.93,17.93,0,0,1,.45-2.72c.84-3.62,5.29-6.1,7-6.92Z" transform="translate(-1.42 -.05)"></path><path fill="url(#w)" d="M338.64,173.4c-.34,3.11-1.31,8.8-3.89,10.87-1.12-.81-2.56-1.89-4.05-3-2-1.5-4.13-3.08-5.64-4.18a19.06,19.06,0,0,1-3.64-3.18,18.66,18.66,0,0,1-2.32-4L316,163.17c-1-2.21-2-5.13-.22-6.84.45-.44,4.55-1.24,4.82-1.82.75-1.66-4-5.17-3.7-7a2.23,2.23,0,0,1,2.37-1.58c1,.05,3.84,2.66,4.73,3.19,1.76,1,.28,2.42,2,3.46a22.78,22.78,0,0,1,6,4.46c1.94,2.27,2.92,5.18,3.85,8,.68,2.07,1.59,4.31,2.29,6.54C338.33,172.22,338.5,172.81,338.64,173.4Z" transform="translate(-1.42 -.05)"></path><polygon fill="#136af6" points="322.51 157.41 315.84 125.78 313.37 114.09 352.13 124.48 363.38 200.15 327.36 189.17 322.51 157.41" class="color68e1fd svgShape"></polygon><polygon style="isolation:isolate" fill="url(#x)" points="330.58 157.03 315.24 122.95 327.36 189.17 363.38 200.15 359.52 174.2 330.58 157.03"></polygon><path fill="url(#y)" d="M326.14,171.1c1.22-.61,3.72-1.72,4.35-2.93.15-.29.37-.67.18-.93-.87-1.2-4.45.33-5.47,0,.7-1.15,6.94-4.64,4-5.43-.63-.17-4.54,1.81-5.17,1.63.49-.4,4.51-3.26,5.2-4a1.31,1.31,0,0,0-1.47-2.09,61.21,61.21,0,0,1-6.54,2.56c.43-.71,6.24-4,6.47-4.84a1.55,1.55,0,0,0,.06-.95,1.41,1.41,0,0,0-.85-.75c-1.62-.63-3.44,0-5.06.65L318,155.54c-1.23.48-2.59,1.1-3,2.34a4.19,4.19,0,0,0-.09,1.93,25.2,25.2,0,0,0,4.21,11.24c1.14,1.66,4.74,5.67,6.81,6.06C327.77,177.46,324.43,172,326.14,171.1Z" transform="translate(-1.42 -.05)"></path><path fill="#ffffff" d="M366.24 273.61s13.22-30.29 28.5-38.91l-5.21-2.11s-26.83 28.53-30 43.21 3.19 77.67 3.19 77.67h4.4S359.85 279.79 366.24 273.61zM426.34 208c-8.51 3.5-23 6.55-26.12 7.19l-.6.12-.13-2.63s21.56-2.72 25.68-9.47-12.84-29.38-2.59-42c0 0-1.3 11.16 2.07 19.41S435.9 204.06 426.34 208z" opacity=".24" transform="translate(-1.42 -.05)" class="colorfff svgShape"></path></svg></g></svg>